<svg width="700" height="350" viewBox="0 0 700 350" fill="none" xmlns="http://www.w3.org/2000/svg">
<path d="M31 196.695V323.967H167.589C244.507 323.967 288.517 250.419 288.517 203.039V27H233.405L196.136 69.0273C74.8116 69.0273 31 136.231 31 196.695Z" fill="#7347AB"/>
<path d="M157.839 197.725C110.643 158.325 39.9209 150.901 39.9209 150.901C34.4328 164.719 32.5475 173.642 31 191.343V323.967H170.959C188.198 322.864 197.414 320.847 212.986 314.649C212.986 314.649 205.035 237.126 157.839 197.725Z" fill="url(#paint0_linear_324_16)" fill-opacity="0.3"/>
<path d="M115.451 195.704H76.5957V279.759H115.451V195.704Z" fill="white"/>
<path d="M175.321 124.337H136.465V279.759H175.321V124.337Z" fill="white"/>
<path d="M235.189 27.1982H196.334V279.759H235.189V27.1982Z" fill="white"/>
<path d="M414.845 187.594C414.845 200.062 412.267 209.648 407.11 216.352C401.954 223.055 394.688 226.406 385.313 226.406C377.579 226.406 371.345 223.336 366.61 217.195L365.626 225H344.392V117H368.087V155.039C372.493 150.023 378.188 147.516 385.173 147.516C394.642 147.516 401.954 150.914 407.11 157.711C412.267 164.508 414.845 174.07 414.845 186.398V187.594ZM391.079 186.117C391.079 178.805 390.095 173.602 388.126 170.508C386.204 167.367 383.228 165.797 379.196 165.797C373.853 165.797 370.149 167.836 368.087 171.914V202.148C370.103 206.18 373.853 208.195 379.337 208.195C384.915 208.195 388.454 205.477 389.954 200.039C390.704 197.367 391.079 192.727 391.079 186.117ZM471.376 170.367L463.571 169.805C456.118 169.805 451.337 172.148 449.228 176.836V225H425.532V148.922H447.751L448.524 158.695C452.509 151.242 458.063 147.516 465.188 147.516C467.72 147.516 469.923 147.797 471.798 148.359L471.376 170.367ZM520.665 225C519.821 223.453 519.071 221.18 518.415 218.18C514.056 223.664 507.962 226.406 500.134 226.406C492.962 226.406 486.868 224.25 481.853 219.938C476.837 215.578 474.329 210.117 474.329 203.555C474.329 195.305 477.376 189.07 483.47 184.852C489.563 180.633 498.423 178.523 510.048 178.523H517.36V174.516C517.36 167.531 514.337 164.039 508.29 164.039C502.665 164.039 499.853 166.805 499.853 172.336H476.157C476.157 164.977 479.274 159 485.509 154.406C491.79 149.812 499.782 147.516 509.485 147.516C519.188 147.516 526.853 149.883 532.478 154.617C538.103 159.352 540.985 165.844 541.126 174.094V207.773C541.22 214.758 542.298 220.102 544.36 223.805V225H520.665ZM505.829 209.531C508.782 209.531 511.22 208.898 513.142 207.633C515.11 206.367 516.517 204.938 517.36 203.344V191.18H510.47C502.22 191.18 498.095 194.883 498.095 202.289C498.095 204.445 498.821 206.203 500.274 207.562C501.728 208.875 503.579 209.531 505.829 209.531ZM624.938 187.523C624.938 199.336 622.267 208.781 616.923 215.859C611.626 222.891 604.454 226.406 595.407 226.406C588.423 226.406 582.681 223.852 578.181 218.742V254.25H554.485V148.922H576.634L577.337 155.953C581.884 150.328 587.86 147.516 595.267 147.516C604.642 147.516 611.931 150.984 617.134 157.922C622.337 164.812 624.938 174.305 624.938 186.398V187.523ZM601.243 186.047C601.243 172.547 597.306 165.797 589.431 165.797C583.806 165.797 580.056 167.812 578.181 171.844V201.797C580.243 206.016 584.04 208.125 589.571 208.125C597.118 208.125 601.009 201.609 601.243 188.578V186.047ZM660.446 225H636.681V148.922H660.446V225ZM635.274 129.305C635.274 125.93 636.493 123.164 638.931 121.008C641.368 118.852 644.532 117.773 648.423 117.773C652.313 117.773 655.478 118.852 657.915 121.008C660.353 123.164 661.571 125.93 661.571 129.305C661.571 132.68 660.353 135.445 657.915 137.602C655.478 139.758 652.313 140.836 648.423 140.836C644.532 140.836 641.368 139.758 638.931 137.602C636.493 135.445 635.274 132.68 635.274 129.305Z" fill="#FAFAFA"/>
<defs>
<linearGradient id="paint0_linear_324_16" x1="121.993" y1="150.901" x2="121.993" y2="323.967" gradientUnits="userSpaceOnUse">
<stop stop-color="#7347AB"/>
<stop offset="1" stop-color="white" stop-opacity="0.28"/>
</linearGradient>
</defs>
</svg>
